<svg width="343" height="413" viewBox="0 0 343 413" fill="none" xmlns="http://www.w3.org/2000/svg">
<path fill-rule="evenodd" clip-rule="evenodd" d="M286.545 1.49545C305.731 4.68181 326.961 14.354 337.177 37.8157C347.602 61.7553 339.642 84.0795 328.297 100.212C317.224 115.958 300.856 129.24 285.747 139.516C270.831 149.661 255.429 158.013 243.644 163.89L282.646 268.762L235.782 286.191L188.819 159.912L171 115.255L153.072 160.186C153.046 160.251 153.019 160.317 152.993 160.382L101.368 286.646L55.0865 267.724L98.2395 162.18C88.2815 156.388 75.6128 148.484 62.8297 139.049C48.9145 128.778 34.0077 116.07 22.3548 101.64C10.9679 87.5384 0.499992 69.08 0.5 47.7968L0.50001 22.7968L50.5 22.7968L50.5 47.7968C50.5 52.6152 53.0761 60.0981 61.2552 70.2267C69.1683 80.0261 80.3496 89.8359 92.5224 98.8206C101.028 105.099 109.603 110.672 117.163 115.264L147.78 38.5317C150.252 32.3368 155.097 27.3864 161.237 24.7818L171 47.7968C161.237 24.7818 161.243 24.7796 161.248 24.7771L161.298 24.7561L161.403 24.7119C161.488 24.6764 161.601 24.6288 161.743 24.5697C162.027 24.4515 162.425 24.2874 162.928 24.082C163.936 23.6714 165.372 23.0953 167.181 22.3918C170.796 20.9866 175.926 19.0644 182.133 16.9356C194.455 12.71 211.451 7.5223 229.487 4.02031C247.13 0.594696 267.751 -1.62581 286.545 1.49545ZM203.754 62.4261C213.96 59.1022 226.362 55.5609 239.017 53.1037C254.396 50.1177 268.193 49.1324 278.354 50.8198C288.122 52.4422 290.383 55.5932 291.335 57.7779C292.224 59.8189 293.076 63.3754 287.398 71.4497C281.447 79.9115 270.874 89.1629 257.627 98.1725C246.78 105.55 235.303 111.992 225.536 117.015L203.754 62.4261Z" fill="#EFF4F5"/>
<path d="M11.8062 390V320.182H60.8972V335.455H30.7608V347.455H57.8972V362.727H30.7608V390H11.8062ZM82.2687 390V320.182H101.223V374.727H129.451V390H82.2687ZM216.43 355.091C216.43 362.864 214.919 369.42 211.896 374.761C208.873 380.08 204.794 384.114 199.657 386.864C194.521 389.591 188.794 390.955 182.476 390.955C176.112 390.955 170.362 389.58 165.226 386.83C160.112 384.057 156.044 380.011 153.021 374.693C150.021 369.352 148.521 362.818 148.521 355.091C148.521 347.318 150.021 340.773 153.021 335.455C156.044 330.114 160.112 326.08 165.226 323.352C170.362 320.602 176.112 319.227 182.476 319.227C188.794 319.227 194.521 320.602 199.657 323.352C204.794 326.08 208.873 330.114 211.896 335.455C214.919 340.773 216.43 347.318 216.43 355.091ZM196.93 355.091C196.93 350.909 196.373 347.386 195.26 344.523C194.169 341.636 192.544 339.455 190.385 337.977C188.248 336.477 185.612 335.727 182.476 335.727C179.339 335.727 176.691 336.477 174.532 337.977C172.396 339.455 170.771 341.636 169.657 344.523C168.566 347.386 168.021 350.909 168.021 355.091C168.021 359.273 168.566 362.807 169.657 365.693C170.771 368.557 172.396 370.739 174.532 372.239C176.691 373.716 179.339 374.455 182.476 374.455C185.612 374.455 188.248 373.716 190.385 372.239C192.544 370.739 194.169 368.557 195.26 365.693C196.373 362.807 196.93 359.273 196.93 355.091ZM252.921 390L232.33 320.182H253.466L263.012 363.136H263.557L274.876 320.182H291.512L302.83 363.273H303.376L312.921 320.182H334.057L313.466 390H295.33L283.466 351H282.921L271.057 390H252.921Z" fill="#EFF4F5"/>
</svg>
